<svg id="Layer_3" enable-background="new 0 0 64 64" height="512" viewBox="0 0 64 64" width="512" xmlns="http://www.w3.org/2000/svg">
<path d="m33.586 32-2-2h-10.666c.047.328.08.66.08 1s-.033.672-.08 1z"/>
<path d="m15 26.101v9.799c2.279-.465 4-2.484 4-4.899s-1.721-4.436-4-4.9z"/>
<path d="m29.586 28-1.586-1.586-1.586 1.586z"/>
<path d="m31.979 14.808h22.042v16.385h-22.042z" transform="matrix(.707 -.707 .707 .707 -3.669 37.142)"/>
<path d="m40.479 29.671h22.042v3.657h-22.042z" transform="matrix(.707 -.707 .707 .707 -7.19 45.642)"/
><path d="m23.479 12.671h22.042v3.657h-22.042z" transform="matrix(.707 -.707 .707 .707 -.148 28.642)"/>
<path d="m56.586 13c.267-.268.414-.622.414-1s-.147-.732-.415-1l-7.585-7.586c-.534-.535-1.466-.535-2 0l-2.586 2.586 9.586 9.586z"/>
<path d="m14 55 .658-1.317c.883-1.764 1.342-3.71 1.342-5.683s-.459-3.919-1.342-5.683l-.658-1.317-.658 1.317c-.883 1.764-1.342 3.71-1.342 5.683s.459 3.919 1.342 5.683z"/>
<path d="m23.686 47.256.314-1.256-1.256.314c-1.796.449-3.435 1.377-4.744 2.686s-2.237 2.948-2.686 4.744l-.314 1.256 1.256-.314c.405-.101.8-.235 1.187-.384-.114.045-.228.09-.338.145l-3.105 1.553-3.106-1.553c-.11-.055-.224-.1-.338-.145.387.149.782.282 1.187.384l1.257.314-.314-1.256c-.449-1.796-1.377-3.435-2.686-4.744s-2.948-2.237-4.744-2.686l-1.256-.314.314 1.256c.449 1.796 1.377 3.435 2.686 4.744.964.964 2.111 1.718 3.365 2.23-.439-.149-.899-.23-1.365-.23-.658 0-1.306.153-1.894.447l-3.106 1.553 3.106 1.553c.588.294 1.236.447 1.894.447s1.306-.153 1.894-.447l2.106-1.053v4.5h-4v2h10v-2h-4v-4.5l2.106 1.053c.588.294 1.236.447 1.894.447s1.306-.153 1.894-.447l3.106-1.553-3.106-1.553c-.588-.294-1.236-.447-1.894-.447-.466 0-.926.081-1.365.23 1.254-.512 2.4-1.266 3.365-2.23 1.309-1.309 2.237-2.948 2.686-4.744z"/>
<path d="m10 22c0-1.281-.509-2.509-1.414-3.414-1.656-1.656-2.586-3.901-2.586-6.243 0 2.341-.93 4.587-2.586 6.243-.905.905-1.414 2.133-1.414 3.414 0 2.209 1.791 4 4 4s4-1.791 4-4z"/>
<path d="m16 16c2.209 0 4-1.791 4-4 0-1.281-.509-2.509-1.414-3.414-1.656-1.656-2.586-3.901-2.586-6.243 0 2.341-.93 4.587-2.586 6.243-.905.905-1.414 2.133-1.414 3.414 0 2.209 1.791 4 4 4z"/>
<path d="m34.586 43.586c-1.656-1.656-2.586-3.901-2.586-6.243 0 2.341-.93 4.587-2.586 6.243-.905.905-1.414 2.133-1.414 3.414 0 2.209 1.791 4 4 4s4-1.791 4-4c0-1.281-.509-2.509-1.414-3.414z"/>
</svg>